<?xml version="1.0" encoding="utf-8"?><svg xmlns="http://www.w3.org/2000/svg" xmlns:xlink="http://www.w3.org/1999/xlink" width="1559" height="683" preserveAspectRatio="xMidYMid" viewBox="0 0 1559 683" style="z-index:1;margin-right:-1.6px;display:block;animation-play-state:paused" ><g transform="translate(779.5,341.5) scale(1,1) translate(-779.5,-341.5)" style="transform:matrix(1, 0, 0, 1, 0, 0);animation-play-state:paused" ><linearGradient id="lg-0.8262055748229638" x1="0" x2="1" y1="0" y2="0" style="animation-play-state:paused" ><stop stop-color="#ff727d" offset="0" style="animation-play-state:paused" ></stop>

  
<stop stop-color="#ffd391" offset="1" style="animation-play-state:paused" ></stop></linearGradient>
<path d="M 0 0 L 0 648.441 Q 155.9 476.57 311.8 461.511 T 623.6 521.337 T 935.4 446.021 T 1247.2 422.391 T 1559 326.511 L 1559 0 Z" fill="url(#lg-0.8262055748229638)" opacity="0.4" style="opacity:0.4;animation-play-state:paused" ></path>
<path d="M 0 0 L 0 622.135 Q 155.9 612.586 311.8 589.37 T 623.6 429.136 T 935.4 360.394 T 1247.2 347.072 T 1559 257.976 L 1559 0 Z" fill="url(#lg-0.8262055748229638)" opacity="0.4" style="opacity:0.4;animation-play-state:paused" ></path>
<path d="M 0 0 L 0 635.16 Q 155.9 648.929 311.8 602.167 T 623.6 404.864 T 935.4 345.42 T 1247.2 274.52 T 1559 383.562 L 1559 0 Z" fill="url(#lg-0.8262055748229638)" opacity="0.4" style="opacity:0.4;animation-play-state:paused" ></path>
<path d="M 0 0 L 0 528.787 Q 155.9 494.731 311.8 458.259 T 623.6 526.994 T 935.4 330.807 T 1247.2 389.65 T 1559 220.946 L 1559 0 Z" fill="url(#lg-0.8262055748229638)" opacity="0.4" style="opacity:0.4;animation-play-state:paused" ></path>
<path d="M 0 0 L 0 544.297 Q 155.9 511.912 311.8 481.984 T 623.6 458.039 T 935.4 361.387 T 1247.2 319.452 T 1559 362.172 L 1559 0 Z" fill="url(#lg-0.8262055748229638)" opacity="0.4" style="opacity:0.4;animation-play-state:paused" ></path>
<path d="M 0 0 L 0 623.352 Q 155.9 545.397 311.8 521.497 T 623.6 437.49 T 935.4 441.737 T 1247.2 262.322 T 1559 270.709 L 1559 0 Z" fill="url(#lg-0.8262055748229638)" opacity="0.4" style="opacity:0.4;animation-play-state:paused" ></path>
<path d="M 0 0 L 0 638.692 Q 155.9 462.54 311.8 438.35 T 623.6 560.317 T 935.4 344.414 T 1247.2 363.191 T 1559 260.014 L 1559 0 Z" fill="url(#lg-0.8262055748229638)" opacity="0.4" style="opacity:0.4;animation-play-state:paused" ></path>
<path d="M 0 0 L 0 479.167 Q 155.9 626.256 311.8 587.425 T 623.6 442.464 T 935.4 400.118 T 1247.2 326.92 T 1559 390.798 L 1559 0 Z" fill="url(#lg-0.8262055748229638)" opacity="0.4" style="opacity:0.4;animation-play-state:paused" ></path>
<path d="M 0 0 L 0 528.506 Q 155.9 592.526 311.8 568.402 T 623.6 529.561 T 935.4 429.75 T 1247.2 489.834 T 1559 292.757 L 1559 0 Z" fill="url(#lg-0.8262055748229638)" opacity="0.4" style="opacity:0.4;animation-play-state:paused" ></path>
<path d="M 0 0 L 0 564.536 Q 155.9 486.934 311.8 459.085 T 623.6 419.678 T 935.4 415.849 T 1247.2 408.942 T 1559 297.281 L 1559 0 Z" fill="url(#lg-0.8262055748229638)" opacity="0.4" style="opacity:0.4;animation-play-state:paused" ></path></g></svg>